<svg width="32" height="32" viewBox="0 0 32 32" fill="none" xmlns="http://www.w3.org/2000/svg">
<path d="M16 32C24.8366 32 32 24.8366 32 16C32 7.16344 24.8366 0 16 0C7.16344 0 0 7.16344 0 16C0 24.8366 7.16344 32 16 32Z" fill="#F5B300"/>
<path d="M11.6596 7.82301C12.2148 7.97443 12.77 8.07538 13.3252 8.2268C13.8804 8.37822 14.4356 8.47916 14.9908 8.63058C15.1423 8.68106 15.1927 8.63058 15.2432 8.47916C15.4451 7.62112 15.647 6.81355 15.8489 5.9555C15.8994 5.80408 15.9498 5.75361 16.1013 5.80408C16.606 5.9555 17.0602 6.05645 17.565 6.1574C17.7164 6.20787 17.7164 6.25834 17.6659 6.35929C17.464 7.16686 17.2621 8.0249 17.0602 8.83247C17.0602 8.88295 17.0602 8.93342 17.0098 9.03437C17.4136 9.13531 17.8678 9.23626 18.2716 9.33721C18.3221 9.33721 18.3725 9.23626 18.423 9.18579C18.5744 8.52964 18.7259 7.92396 18.9277 7.26781L19.0792 6.66213C19.0792 6.56118 19.1296 6.51071 19.2306 6.56118C19.7353 6.7126 20.2401 6.81355 20.7953 6.96497C20.8457 6.96497 20.8457 7.01544 20.8962 7.01544C20.7448 7.67159 20.5934 8.27727 20.4419 8.88295C20.3915 9.13531 20.341 9.38768 20.2401 9.64005C20.1896 9.79147 20.2401 9.84194 20.3915 9.89241L22.0571 10.6495C22.5618 10.9523 23.0161 11.3561 23.3694 11.8609C23.8236 12.618 23.8741 13.4255 23.6722 14.2331C23.5208 14.7883 23.3189 15.293 22.9151 15.6968C22.6123 15.9997 22.2085 16.2016 21.8047 16.353C21.7542 16.353 21.7038 16.4035 21.6028 16.4035C21.8047 16.5549 22.0066 16.6558 22.2085 16.8072C22.8142 17.2615 23.218 17.8167 23.4199 18.5233C23.5208 19.0785 23.4703 19.6842 23.3189 20.2394C23.117 20.946 22.8647 21.5517 22.4104 22.1069C21.8552 22.7631 21.1486 23.1164 20.341 23.2173C19.2811 23.3688 18.2716 23.2678 17.2621 23.1164C17.1107 23.0659 17.0098 23.1164 16.9593 23.2678C16.7574 24.0754 16.5555 24.9334 16.3536 25.741C16.3031 25.9429 16.3031 25.9934 16.0508 25.8924C15.5965 25.7915 15.0918 25.64 14.6375 25.5391C14.4861 25.4886 14.4861 25.4382 14.5366 25.3372C14.7385 24.4792 14.9404 23.6211 15.1927 22.8135C15.1927 22.7126 15.2432 22.6621 15.1423 22.6117C14.7385 22.5107 14.3347 22.4098 13.8804 22.3088C13.7795 22.7631 13.6281 23.2173 13.5271 23.6716C13.4262 24.1259 13.2748 24.5801 13.1738 25.0344C13.1233 25.1353 13.1233 25.1858 12.9719 25.1353C12.4672 24.9839 11.9625 24.8829 11.4577 24.782C11.3063 24.7315 11.3063 24.6811 11.3568 24.5801C11.5587 23.7221 11.7606 22.864 12.0129 22.0564C12.0129 22.006 12.0634 21.9555 12.0634 21.8546C10.9025 21.5517 9.74163 21.2489 8.53027 20.946C8.63122 20.7441 8.68169 20.5927 8.78264 20.3908C8.98453 19.9366 9.18643 19.4823 9.33784 19.0785C9.38832 18.9271 9.43879 18.9271 9.59021 18.9271C9.94352 19.0281 10.3473 19.129 10.7006 19.1795C11.1044 19.2804 11.4072 19.0785 11.4577 18.7252C12.1139 16.1511 12.77 13.577 13.3757 10.9523C13.4766 10.5486 13.2243 10.0943 12.77 9.94289C12.3158 9.79147 11.8615 9.69052 11.4577 9.58957C11.3568 9.58957 11.3063 9.5391 11.3568 9.43815C11.5082 8.88295 11.6596 8.27727 11.811 7.72206C11.6091 7.87348 11.6091 7.87348 11.6596 7.82301ZM14.2337 20.2899C14.2842 20.2899 14.3347 20.3404 14.3347 20.3404C15.1423 20.5423 16.0003 20.7946 16.8583 20.8451C17.464 20.8956 18.0192 20.8956 18.5744 20.6937C19.5334 20.3908 19.9372 19.129 19.382 18.3214C19.1296 17.9176 18.7259 17.6653 18.3221 17.4129C17.4136 16.9082 16.3536 16.7063 15.3442 16.5044C15.1927 16.4539 15.1927 16.5044 15.1423 16.6558C15.0413 17.1606 14.8899 17.6148 14.7889 18.1195C14.5871 18.8262 14.4356 19.5328 14.2337 20.2899ZM18.4735 15.1416C18.5744 15.1416 18.8268 15.0912 19.0287 15.0407C19.9877 14.8388 20.4924 13.7284 19.9877 12.8703C19.7353 12.4161 19.2811 12.1132 18.8268 11.9113C18.1202 11.6085 17.4136 11.4571 16.6565 11.2552C16.505 11.2047 16.4546 11.2552 16.4041 11.4066C16.1517 12.4665 15.8994 13.476 15.5965 14.5359C15.546 14.6369 15.5965 14.6874 15.6975 14.7378C15.8994 14.7883 16.0508 14.8388 16.2527 14.8893C17.0098 14.9902 17.6659 15.1416 18.4735 15.1416Z" fill="white"/>
</svg>
