<svg width="32" height="33" viewBox="0 0 32 33" fill="none" xmlns="http://www.w3.org/2000/svg">
<path d="M28.0003 19.1666H26.667V9.83325C26.667 8.77239 26.2456 7.75497 25.4954 7.00482C24.7453 6.25468 23.7279 5.83325 22.667 5.83325H9.33366C8.27279 5.83325 7.25538 6.25468 6.50523 7.00482C5.75509 7.75497 5.33366 8.77239 5.33366 9.83325V19.1666H4.00033C3.6467 19.1666 3.30756 19.3071 3.05752 19.5571C2.80747 19.8072 2.66699 20.1463 2.66699 20.4999V23.1666C2.66699 24.2275 3.08842 25.2449 3.83857 25.995C4.58871 26.7452 5.60613 27.1666 6.66699 27.1666H25.3337C26.3945 27.1666 27.4119 26.7452 28.1621 25.995C28.9122 25.2449 29.3337 24.2275 29.3337 23.1666V20.4999C29.3337 20.1463 29.1932 19.8072 28.9431 19.5571C28.6931 19.3071 28.3539 19.1666 28.0003 19.1666ZM8.00033 9.83325C8.00033 9.47963 8.1408 9.14049 8.39085 8.89044C8.6409 8.64039 8.98004 8.49992 9.33366 8.49992H22.667C23.0206 8.49992 23.3598 8.64039 23.6098 8.89044C23.8598 9.14049 24.0003 9.47963 24.0003 9.83325V19.1666H8.00033V9.83325ZM26.667 23.1666C26.667 23.5202 26.5265 23.8593 26.2765 24.1094C26.0264 24.3594 25.6873 24.4999 25.3337 24.4999H6.66699C6.31337 24.4999 5.97423 24.3594 5.72418 24.1094C5.47413 23.8593 5.33366 23.5202 5.33366 23.1666V21.8333H26.667V23.1666Z" fill="#718096"/>
</svg>
