<svg width="30" height="30" viewBox="0 0 30 30" fill="none" xmlns="http://www.w3.org/2000/svg">
<rect width="30" height="30" rx="6" fill="#F5F7F9"/>
<path fill-rule="evenodd" clip-rule="evenodd" d="M10.6136 11.4241C9.30606 12.5216 8.27624 13.8301 7.69645 14.6449C7.60201 14.7776 7.55769 14.8409 7.528 14.8913C7.50946 14.9227 7.50594 14.9338 7.50399 14.9413C7.50376 14.9426 7.50305 14.9468 7.50227 14.954C7.50094 14.9663 7.5 14.9822 7.5 15C7.5 15.0178 7.50094 15.0337 7.50227 15.046C7.50305 15.0532 7.50376 15.0574 7.50399 15.0587C7.50594 15.0662 7.50946 15.0773 7.528 15.1087C7.55769 15.1591 7.60201 15.2224 7.69645 15.3551C8.27624 16.1699 9.30606 17.4784 10.6136 18.5759C11.9327 19.6831 13.4439 20.5 15 20.5C16.5561 20.5 18.0673 19.6831 19.3864 18.5759C20.6939 17.4784 21.7238 16.1699 22.3036 15.3551C22.398 15.2224 22.4423 15.1591 22.472 15.1087C22.4905 15.0773 22.4941 15.0662 22.496 15.0587C22.4962 15.0574 22.497 15.0532 22.4977 15.046C22.4991 15.0337 22.5 15.0178 22.5 15C22.5 14.9822 22.4991 14.9663 22.4977 14.954C22.497 14.9468 22.4962 14.9426 22.496 14.9413C22.4941 14.9338 22.4905 14.9227 22.472 14.8913C22.4423 14.8409 22.398 14.7776 22.3036 14.6449C21.7238 13.8301 20.6939 12.5216 19.3864 11.4241C18.0673 10.3169 16.5561 9.5 15 9.5C13.4439 9.5 11.9327 10.3169 10.6136 11.4241ZM9.64921 10.2752C11.0818 9.07268 12.9299 8 15 8C17.0701 8 18.9182 9.07268 20.3508 10.2752C21.795 11.4875 22.9094 12.9091 23.5257 13.7752C23.5358 13.7895 23.5461 13.8038 23.5564 13.8182C23.7045 14.0253 23.8698 14.2564 23.9506 14.5749C24.0165 14.8347 24.0165 15.1653 23.9506 15.4251C23.8698 15.7436 23.7045 15.9747 23.5564 16.1818C23.5461 16.1962 23.5358 16.2105 23.5257 16.2248C22.9094 17.0909 21.795 18.5125 20.3508 19.7248C18.9182 20.9273 17.0701 22 15 22C12.9299 22 11.0818 20.9273 9.64921 19.7248C8.20501 18.5125 7.0906 17.0909 6.47428 16.2248C6.46416 16.2105 6.45393 16.1962 6.44361 16.1818C6.29548 15.9747 6.13023 15.7436 6.04943 15.4251C5.98352 15.1653 5.98352 14.8347 6.04943 14.5749C6.13023 14.2564 6.29548 14.0253 6.44361 13.8182C6.45393 13.8038 6.46416 13.7895 6.47428 13.7752C7.0906 12.9091 8.20501 11.4875 9.64921 10.2752ZM15 13.5C14.1716 13.5 13.5 14.1716 13.5 15C13.5 15.8284 14.1716 16.5 15 16.5C15.8284 16.5 16.5 15.8284 16.5 15C16.5 14.1716 15.8284 13.5 15 13.5ZM12 15C12 13.3431 13.3431 12 15 12C16.6569 12 18 13.3431 18 15C18 16.6569 16.6569 18 15 18C13.3431 18 12 16.6569 12 15Z" fill="#42526E"/>
</svg>
