<svg width="20" height="21" viewBox="0 0 20 21" fill="none" xmlns="http://www.w3.org/2000/svg">
<path d="M6.80065 6.04199H13.1923C13.7257 6.04199 14.159 6.47533 14.159 7.00866V8.07533C14.159 8.46699 13.9173 8.95033 13.6757 9.19199L11.5923 11.0337C11.3007 11.2753 11.109 11.7587 11.109 12.1503V14.2337C11.109 14.5253 10.9173 14.9087 10.6757 15.0587L10.0007 15.4837C9.36732 15.8753 8.50065 15.4337 8.50065 14.6587V12.092C8.50065 11.7503 8.30898 11.317 8.10898 11.0753L6.26732 9.13366C6.02565 8.90033 5.83398 8.45866 5.83398 8.16699V7.05866C5.83398 6.47533 6.26732 6.04199 6.80065 6.04199Z" stroke="#346FBE" stroke-width="1.5" stroke-miterlimit="10" stroke-linecap="round" stroke-linejoin="round"/>
<path d="M7.49935 18.8337H12.4993C16.666 18.8337 18.3327 17.167 18.3327 13.0003V8.00033C18.3327 3.83366 16.666 2.16699 12.4993 2.16699H7.49935C3.33268 2.16699 1.66602 3.83366 1.66602 8.00033V13.0003C1.66602 17.167 3.33268 18.8337 7.49935 18.8337Z" stroke="#346FBE" stroke-width="1.5" stroke-linecap="round" stroke-linejoin="round"/>
</svg>
