<svg xmlns="http://www.w3.org/2000/svg" version="1.1" xmlnsXlink="http://www.w3.org/1999/xlink" xmlnsSvgjs="http://svgjs.dev/svgjs" width="1000" height="275" viewBox="0 0 1000 275"><g transform="matrix(1,0,0,1,-0.6060606060606233,0.5816366786453955)"><svg viewBox="0 0 396 109" data-background-color="#ffffff" preserveAspectRatio="xMidYMid meet" height="275" width="1000" xmlns="http://www.w3.org/2000/svg" xmlns:xlink="http://www.w3.org/1999/xlink"><g id="tight-bounds" transform="matrix(1,0,0,1,0.2400000000000091,-0.23053962899035696)"><svg viewBox="0 0 395.52 109.46107925798073" height="109.46107925798073" width="395.52"><g><svg viewBox="0 0 625.9466344840703 173.23218590343626" height="109.46107925798073" width="395.52"><g><rect width="7.136783304590865" height="173.23218590343626" x="204.60717237164988" y="0" fill="#346fbe" opacity="1" stroke-width="0" stroke="transparent" fill-opacity="1" class="rect-o-0" data-fill-palette-color="primary" rx="1%" id="o-0" data-palette-color="#346fbe"></rect></g><g transform="matrix(1,0,0,1,230.42663448407023,0.4309258355806804)"><svg viewBox="0 0 395.52 172.3703342322749" height="172.3703342322749" width="395.52"><g id="textblocktransform"><svg viewBox="0 0 395.52 172.3703342322749" height="172.3703342322749" width="395.52" id="textblock"><g><svg viewBox="0 0 395.52 172.3703342322749" height="172.3703342322749" width="395.52"><g transform="matrix(1,0,0,1,0,0)"><svg width="395.52" viewBox="-0.2700002193450928 -32.619998931884766 168.3900146484375 69.91999816894531" height="172.3703342322749" data-palette-color="#346fbe"><svg></svg><svg></svg><g class="undefined-text-0" data-fill-palette-color="primary" id="text-0"><path xmlns="http://www.w3.org/2000/svg" d="M8.86-7.03l-2.29 7.23c-1.4-0.133-3.037-0.2-4.91-0.2v0h-1.93l10.62-29.76c0.473-1.333 0.71-2.11 0.71-2.33 0-0.22-0.007-0.357-0.02-0.41v0l0.02-0.04c1.06 0.047 2.183 0.07 3.37 0.07v0c0.973 0 2.143-0.017 3.51-0.05v0l0.03 0.05c-0.033 0.067-0.05 0.157-0.05 0.27v0c0 0.307 0.243 1.127 0.73 2.46v0l10.84 29.81c-0.327-0.013-0.71-0.02-1.15-0.02v0c0 0-0.42-0.017-1.26-0.05v0c-0.413 0-0.78 0-1.1 0v0h-3.79l-2.29-7.03zM10.72-12.89h7.27l-3.68-11.35zM40.5 0h-2.32c-2.393 0-3.98 0.05-4.76 0.15v0-32.77c0.393 0.1 1.203 0.15 2.43 0.15 1.233 0 2.663-0.033 4.29-0.1v0 26.71h5.05c1.467 0 2.64-0.05 3.52-0.15v0c-0.113 3.813-0.17 5.793-0.17 5.94v0 0.24c-1.6-0.113-4.28-0.17-8.04-0.17zM61.38 0h-2.32c-2.393 0-3.98 0.05-4.76 0.15v0-32.77c0.387 0.1 1.197 0.15 2.43 0.15 1.227 0 2.653-0.033 4.28-0.1v0 26.71h5.05c1.467 0 2.64-0.05 3.52-0.15v0c-0.113 3.813-0.17 5.793-0.17 5.94v0 0.24c-1.593-0.113-4.27-0.17-8.03-0.17z" fill="#346fbe" fill-rule="nonzero" stroke="none" stroke-width="1" stroke-linecap="butt" stroke-linejoin="miter" stroke-miterlimit="10" stroke-dasharray="" stroke-dashoffset="0" font-family="none" font-weight="none" font-size="none" text-anchor="none" style="mix-blend-mode: normal" data-fill-palette-color="primary" opacity="1"></path><path xmlns="http://www.w3.org/2000/svg" d="M8.86 29.66l-2.29 7.23c-1.4-0.133-3.037-0.2-4.91-0.2v0h-1.93l10.62-29.76c0.473-1.333 0.71-2.11 0.71-2.33 0-0.22-0.007-0.357-0.02-0.41v0l0.02-0.04c1.06 0.047 2.183 0.07 3.37 0.07v0c0.973 0 2.143-0.017 3.51-0.05v0l0.03 0.05c-0.033 0.067-0.05 0.157-0.05 0.27v0c0 0.307 0.243 1.127 0.73 2.46v0l10.84 29.81c-0.327-0.013-0.71-0.02-1.15-0.02v0c0 0-0.42-0.017-1.26-0.05v0c-0.413 0-0.78 0-1.1 0v0h-3.79l-2.29-7.03zM10.72 23.8h7.27l-3.68-11.35zM47.97 3.61v0c3.047 0 5.643 0.53 7.79 1.59v0 7.47l-0.05 0.05c-0.907-1.4-2.827-2.33-5.76-2.79v0c-0.86-0.147-1.95-0.22-3.27-0.22-1.32 0-2.613 0.25-3.88 0.75-1.273 0.493-2.317 1.197-3.13 2.11v0c-1.58 1.773-2.37 4.303-2.37 7.59v0c0 3.827 1.003 6.677 3.01 8.55v0c1.66 1.56 3.857 2.34 6.59 2.34v0c3.093 0 5.6-0.66 7.52-1.98v0c0.7-0.473 1.293-1.06 1.78-1.76v0l0.07 0.05v6.84c-2.487 2.067-5.837 3.1-10.05 3.1v0c-4.967 0-8.857-1.58-11.67-4.74v0c-2.707-3.007-4.06-6.993-4.06-11.96v0c0-5.253 1.483-9.397 4.45-12.43v0c2.993-3.04 7.337-4.56 13.03-4.56zM76.98 3.61v0c3.04 0 5.637 0.53 7.79 1.59v0 7.47l-0.05 0.05c-0.913-1.4-2.833-2.33-5.76-2.79v0c-0.867-0.147-1.96-0.22-3.28-0.22-1.313 0-2.607 0.25-3.88 0.75-1.267 0.493-2.307 1.197-3.12 2.11v0c-1.58 1.773-2.37 4.303-2.37 7.59v0c0 3.827 1 6.677 3 8.55v0c1.66 1.56 3.857 2.34 6.59 2.34v0c3.093 0 5.6-0.66 7.52-1.98v0c0.7-0.473 1.297-1.06 1.79-1.76v0l0.07 0.05v6.84c-2.493 2.067-5.847 3.1-10.06 3.1v0c-4.967 0-8.857-1.58-11.67-4.74v0c-2.7-3.007-4.05-6.993-4.05-11.96v0c0-5.253 1.48-9.397 4.44-12.43v0c2.993-3.04 7.34-4.56 13.04-4.56zM97.8 30.83h9.96c1.013 0 1.713-0.097 2.1-0.29v0l0.1 0.02-0.24 6.13h-18.29v-32.64c0.44 0.033 0.93 0.057 1.47 0.07v0l1.7 0.05c1.14 0.033 2.38 0.05 3.72 0.05v0c3.727 0 7.413-0.067 11.06-0.2v0c-0.18 1.433-0.27 3.347-0.27 5.74v0c0 0.26 0.017 0.457 0.05 0.59v0l-0.05 0.07c-0.847-0.247-2.053-0.37-3.62-0.37v0h-7.69v6.23h5.79c1.787 0 2.86-0.05 3.22-0.15v0l0.07 6.03c-0.78-0.08-1.787-0.12-3.02-0.12v0h-6.06zM136.08 6.03v0l-0.46 7.17-0.17 0.05c-1.207-1.807-3.257-2.977-6.15-3.51v0c-0.913-0.18-1.79-0.27-2.63-0.27-0.833 0-1.55 0.073-2.15 0.22-0.593 0.147-1.1 0.357-1.52 0.63v0c-0.893 0.587-1.34 1.353-1.34 2.3v0c0 1.233 0.39 2.16 1.17 2.78v0c0.973 0.747 2.593 1.273 4.86 1.58 2.26 0.3 4.073 0.71 5.44 1.23 1.367 0.52 2.49 1.18 3.37 1.98v0c1.66 1.493 2.49 3.607 2.49 6.34v0c0 3.58-1.35 6.34-4.05 8.28v0c-2.313 1.66-5.227 2.49-8.74 2.49v0c-2.833 0-5.633-0.537-8.4-1.61v0c-0.913-0.36-1.71-0.777-2.39-1.25v0l0.26-8.15 0.1-0.07c2.02 3.48 5.333 5.22 9.94 5.22v0c3.273 0 5.437-0.79 6.49-2.37v0c0.36-0.533 0.54-1.13 0.54-1.79 0-0.66-0.107-1.207-0.32-1.64-0.213-0.427-0.563-0.797-1.05-1.11v0c-0.94-0.62-2.527-1.033-4.76-1.24-2.227-0.213-4.05-0.613-5.47-1.2-1.413-0.587-2.543-1.31-3.39-2.17v0c-1.533-1.567-2.3-3.75-2.3-6.55v0c0-2.893 1.02-5.237 3.06-7.03v0c2.067-1.82 4.853-2.73 8.36-2.73 3.507 0 6.577 0.807 9.21 2.42zM165.21 6.03v0l-0.46 7.17-0.17 0.05c-1.207-1.807-3.26-2.977-6.16-3.51v0c-0.907-0.18-1.78-0.27-2.62-0.27-0.84 0-1.557 0.073-2.15 0.22-0.593 0.147-1.103 0.357-1.53 0.63v0c-0.893 0.587-1.34 1.353-1.34 2.3v0c0 1.233 0.39 2.16 1.17 2.78v0c0.98 0.747 2.6 1.273 4.86 1.58 2.267 0.3 4.083 0.71 5.45 1.23 1.367 0.52 2.49 1.18 3.37 1.98v0c1.66 1.493 2.49 3.607 2.49 6.34v0c0 3.58-1.353 6.34-4.06 8.28v0c-2.307 1.66-5.22 2.49-8.74 2.49v0c-2.833 0-5.633-0.537-8.4-1.61v0c-0.907-0.36-1.703-0.777-2.39-1.25v0l0.27-8.15 0.1-0.07c2.013 3.48 5.323 5.22 9.93 5.22v0c3.273 0 5.44-0.79 6.5-2.37v0c0.36-0.533 0.54-1.13 0.54-1.79 0-0.66-0.107-1.207-0.32-1.64-0.213-0.427-0.563-0.797-1.05-1.11v0c-0.947-0.62-2.533-1.033-4.76-1.24-2.233-0.213-4.057-0.613-5.47-1.2-1.42-0.587-2.55-1.31-3.39-2.17v0c-1.533-1.567-2.3-3.75-2.3-6.55v0c0-2.893 1.017-5.237 3.05-7.03v0c2.067-1.82 4.853-2.73 8.36-2.73 3.507 0 6.58 0.807 9.22 2.42z" fill="#346fbe" fill-rule="nonzero" stroke="none" stroke-width="1" stroke-linecap="butt" stroke-linejoin="miter" stroke-miterlimit="10" stroke-dasharray="" stroke-dashoffset="0" font-family="none" font-weight="none" font-size="none" text-anchor="none" style="mix-blend-mode: normal" data-fill-palette-color="primary" opacity="1"></path></g></svg></g></svg></g></svg></g></svg></g><g transform="matrix(1,0,0,1,0,0.4309258355806804)"><svg viewBox="0 0 185.9244935638204 172.3703342322749" height="172.3703342322749" width="185.9244935638204"><g><svg xmlns="http://www.w3.org/2000/svg" xmlns:xlink="http://www.w3.org/1999/xlink" version="1.1" x="0" y="0" viewBox="0 3.748991012573242 100.03898620605469 92.74600219726562" enable-background="new 0 0 100 100" xml:space="preserve" width="185.9244935638204" height="172.3703342322749" class="icon-icon-0" data-fill-palette-color="accent" id="icon-0"><path d="M51.246 89.629c-5.208-0.948-8.671-5.945-7.731-11.141 0.644-3.527 3.149-6.303 6.389-7.389l3.046-5.668-4.454-4.653c-0.399-0.021-0.807-0.068-1.21-0.144-2.501-0.45-4.689-1.857-6.148-3.969-1.463-2.102-2.017-4.646-1.562-7.165 0.833-4.569 4.797-7.882 9.426-7.882 0.566 0 1.133 0.049 1.712 0.154 2.416 0.436 4.548 1.802 5.986 3.725l6.354 1.149 3.103-5.775c-0.356-1.343-0.425-2.765-0.176-4.149 0.832-4.569 4.792-7.882 9.422-7.882 0.562 0 1.133 0.052 1.712 0.152 0.167 0.032 0.326 0.101 0.493 0.14 0-5.454 0-8.985 0-8.985 0-9.057-17.372-16.398-38.804-16.398C17.373 3.75 0 11.092 0 20.149c0 0 0 14.155 0 29.614s16.252 37.379 38.804 46.732c4.441-1.84 8.628-4.188 12.512-6.86C51.294 89.631 51.272 89.633 51.246 89.629z" fill="#346fbe" data-fill-palette-color="accent"></path><path d="M99.22 56.969c-0.699-1.011-1.755-1.688-2.961-1.907-1.845-0.339-3.591 0.472-4.569 1.836l-12.1-2.192-1.686-12.43c1.051-0.665 1.811-1.742 2.042-3.024 0.219-1.212-0.047-2.438-0.751-3.448-0.699-1.01-1.751-1.688-2.961-1.905-2.553-0.457-4.903 1.246-5.354 3.709-0.223 1.251 0.091 2.506 0.812 3.49l-5.964 11.098-12.284-2.227c-0.459-1.644-1.823-2.971-3.617-3.295-2.527-0.455-4.899 1.249-5.346 3.711-0.455 2.502 1.214 4.902 3.707 5.351 0.768 0.142 1.515 0.075 2.222-0.163l8.641 9.031-5.908 10.988c-2.304-0.099-4.316 1.523-4.728 3.782-0.45 2.495 1.214 4.897 3.711 5.353 2.549 0.455 4.904-1.253 5.351-3.711 0.052-0.271 0.073-0.539 0.068-0.81l11.25-5.421 8.74 9.137c-0.211 0.403-0.36 0.843-0.446 1.305-0.219 1.212 0.043 2.435 0.751 3.447 0.694 1.008 1.75 1.687 2.96 1.905 0.279 0.051 0.554 0.077 0.824 0.077 2.23 0 4.136-1.592 4.53-3.784 0.219-1.21-0.047-2.433-0.751-3.445-0.536-0.772-1.278-1.352-2.141-1.678l-1.776-13.082 11.211-5.397c0.559 0.429 1.215 0.725 1.918 0.854 0.279 0.052 0.55 0.075 0.82 0.075 2.227 0 4.132-1.594 4.526-3.784C100.185 59.202 99.923 57.979 99.22 56.969z" fill="#346fbe" data-fill-palette-color="accent"></path></svg></g></svg></g></svg></g><defs></defs></svg><rect width="395.52" height="109.46107925798073" fill="none" stroke="none" visibility="hidden"></rect></g></svg></g></svg>