<svg width="17" height="27" viewBox="0 0 17 27" fill="none" xmlns="http://www.w3.org/2000/svg">
<path d="M2.5 1C2.5 0.447715 2.05228 0 1.5 0C0.947715 0 0.5 0.447715 0.5 1H2.5ZM0.5 1V13H2.5V1H0.5ZM7.5 20H15.5V18H7.5V20ZM0.5 13C0.5 16.866 3.63401 20 7.5 20V18C4.73858 18 2.5 15.7614 2.5 13H0.5Z" fill="#346FBE"/>
<path d="M8.79289 25.7071C8.40237 25.3166 8.40237 24.6834 8.79289 24.2929L14.0858 19L8.79289 13.7071C8.40237 13.3166 8.40237 12.6834 8.79289 12.2929C9.18342 11.9024 9.81658 11.9024 10.2071 12.2929L16.2071 18.2929C16.5976 18.6834 16.5976 19.3166 16.2071 19.7071L10.2071 25.7071C9.81658 26.0976 9.18342 26.0976 8.79289 25.7071Z" fill="#346FBE"/>
</svg>
