<svg width="20" height="21" viewBox="0 0 20 21" fill="none" xmlns="http://www.w3.org/2000/svg">
<path d="M5 2.5C5 1.39543 5.89543 0.5 7 0.5H13C14.1046 0.5 15 1.39543 15 2.5V4.5H16.9897C16.9959 4.49994 17.0021 4.49994 17.0083 4.5H19C19.5523 4.5 20 4.94772 20 5.5C20 6.05228 19.5523 6.5 19 6.5H17.9311L17.0638 18.6425C16.989 19.6891 16.1182 20.5 15.0689 20.5H4.93112C3.88184 20.5 3.01096 19.6891 2.9362 18.6425L2.06888 6.5H1C0.447715 6.5 0 6.05228 0 5.5C0 4.94772 0.447715 4.5 1 4.5H2.99174C2.99795 4.49994 3.00414 4.49994 3.01032 4.5H5V2.5ZM7 4.5H13V2.5H7V4.5ZM4.07398 6.5L4.93112 18.5H15.0689L15.926 6.5H4.07398Z" fill="#42526E"/>
</svg>
