<svg width="20" height="20" viewBox="0 0 20 20" fill="none" xmlns="http://www.w3.org/2000/svg">
<path d="M17.9904 10.1495C17.9904 9.49394 17.936 9.01559 17.8182 8.51953H10.1582V11.4782H14.6544C14.5638 12.2135 14.0743 13.3208 12.9865 14.0648L12.9712 14.1639L15.3932 15.9973L15.561 16.0137C17.102 14.6229 17.9904 12.5766 17.9904 10.1495Z" fill="#4285F4"/>
<path d="M10.1584 17.9446C12.3612 17.9446 14.2104 17.2359 15.5612 16.0134L12.9867 14.0646C12.2978 14.534 11.3731 14.8618 10.1584 14.8618C8.00096 14.8618 6.16984 13.4711 5.51709 11.5488L5.42142 11.5568L2.90305 13.4613L2.87012 13.5508C4.21173 16.1551 6.96751 17.9446 10.1584 17.9446Z" fill="#34A853"/>
<path d="M5.5172 11.5489C5.34497 11.0528 5.24529 10.5213 5.24529 9.97208C5.24529 9.42283 5.34497 8.89135 5.50814 8.39529L5.50358 8.28964L2.95365 6.35449L2.87022 6.39327C2.31728 7.474 2 8.68762 2 9.97208C2 11.2565 2.31728 12.4701 2.87022 13.5508L5.5172 11.5489Z" fill="#FBBC05"/>
<path d="M10.1584 5.08269C11.6904 5.08269 12.7238 5.72934 13.313 6.26974L15.6156 4.07285C14.2014 2.7884 12.3612 2 10.1584 2C6.96751 2 4.21173 3.78937 2.87012 6.39371L5.50803 8.39573C6.16984 6.47347 8.00096 5.08269 10.1584 5.08269Z" fill="#EB4335"/>
</svg>
