<svg width="20" height="20" viewBox="0 0 20 20" fill="none" xmlns="http://www.w3.org/2000/svg">
<path d="M6.99999 19C8.65599 19 9.99999 17.656 9.99999 16V13H6.99999C5.344 13 4 14.344 4 16C4 17.656 5.344 19 6.99999 19Z" fill="#0ACF83"/>
<path d="M4 9.99999C4 8.344 5.344 7 6.99999 7H9.99999V13H6.99999C5.344 13 4 11.656 4 9.99999Z" fill="#A259FF"/>
<path d="M4 3.99999C4 2.344 5.344 1 6.99999 1H9.99999V6.99999H6.99999C5.344 6.99999 4 5.65599 4 3.99999Z" fill="#F24E1E"/>
<path d="M10 1H13C14.656 1 16 2.344 16 3.99999C16 5.65599 14.656 6.99999 13 6.99999H10V1Z" fill="#FF7262"/>
<path d="M16 9.99999C16 11.656 14.656 13 13 13C11.344 13 10 11.656 10 9.99999C10 8.344 11.344 7 13 7C14.656 7 16 8.344 16 9.99999Z" fill="#1ABCFE"/>
</svg>
