<svg width="20" height="20" viewBox="0 0 20 20" fill="none" xmlns="http://www.w3.org/2000/svg">
<path d="M10.0029 1C6.24552 1 5.14662 1.00388 4.93301 1.0216C4.16193 1.08571 3.68211 1.20716 3.15938 1.46749C2.75653 1.66758 2.43882 1.89952 2.12527 2.22466C1.55422 2.8176 1.20813 3.54708 1.08285 4.4142C1.02193 4.83516 1.00421 4.92101 1.00062 7.07122C0.999231 7.78796 1.00062 8.73124 1.00062 9.99647C1.00062 13.7519 1.00477 14.85 1.02276 15.0632C1.08506 15.8137 1.20273 16.2859 1.45192 16.8024C1.92813 17.7911 2.83765 18.5333 3.90915 18.8103C4.28015 18.9058 4.68992 18.9585 5.21598 18.9834C5.43886 18.9931 7.71058 19 9.9837 19C12.2568 19 14.5299 18.9972 14.7473 18.9862C15.3564 18.9575 15.7101 18.91 16.1012 18.8089C17.1796 18.5306 18.0725 17.7994 18.5584 16.7969C18.8027 16.2928 18.9266 15.8027 18.9827 15.0913C18.9949 14.9362 19 12.4635 19 9.99412C19 7.52431 18.9945 5.05616 18.9823 4.90107C18.9255 4.17824 18.8016 3.6922 18.5494 3.17846C18.3424 2.75792 18.1126 2.44386 17.779 2.12274C17.1836 1.55389 16.4554 1.20771 15.5877 1.08253C15.1673 1.02174 15.0835 1.00374 12.9322 1H10.0029Z" fill="url(#paint0_radial_64_1832)"/>
<path d="M10.0029 1C6.24552 1 5.14662 1.00388 4.93301 1.0216C4.16193 1.08571 3.68211 1.20716 3.15938 1.46749C2.75653 1.66758 2.43882 1.89952 2.12527 2.22466C1.55422 2.8176 1.20813 3.54708 1.08285 4.4142C1.02193 4.83516 1.00421 4.92101 1.00062 7.07122C0.999231 7.78796 1.00062 8.73124 1.00062 9.99647C1.00062 13.7519 1.00477 14.85 1.02276 15.0632C1.08506 15.8137 1.20273 16.2859 1.45192 16.8024C1.92813 17.7911 2.83765 18.5333 3.90915 18.8103C4.28015 18.9058 4.68992 18.9585 5.21598 18.9834C5.43886 18.9931 7.71058 19 9.9837 19C12.2568 19 14.5299 18.9972 14.7473 18.9862C15.3564 18.9575 15.7101 18.91 16.1012 18.8089C17.1796 18.5306 18.0725 17.7994 18.5584 16.7969C18.8027 16.2928 18.9266 15.8027 18.9827 15.0913C18.9949 14.9362 19 12.4635 19 9.99412C19 7.52431 18.9945 5.05616 18.9823 4.90107C18.9255 4.17824 18.8016 3.6922 18.5494 3.17846C18.3424 2.75792 18.1126 2.44386 17.779 2.12274C17.1836 1.55389 16.4554 1.20771 15.5877 1.08253C15.1673 1.02174 15.0835 1.00374 12.9322 1H10.0029Z" fill="url(#paint1_radial_64_1832)"/>
<path d="M9.99897 3.35449C8.19433 3.35449 7.96785 3.36239 7.25906 3.39465C6.55165 3.42705 6.06879 3.53908 5.64628 3.70344C5.20924 3.87321 4.83851 4.10031 4.46917 4.46989C4.09954 4.83934 3.87251 5.21017 3.70223 5.64719C3.5375 6.06995 3.42536 6.55309 3.39352 7.26041C3.36182 7.96939 3.35352 8.19607 3.35352 10.0012C3.35352 11.8063 3.36155 12.0322 3.39366 12.7412C3.42619 13.4488 3.53819 13.9318 3.70237 14.3544C3.87223 14.7915 4.09927 15.1624 4.46875 15.5318C4.83796 15.9016 5.20869 16.1292 5.64545 16.299C6.06824 16.4633 6.55124 16.5754 7.2585 16.6078C7.96729 16.64 8.19364 16.6479 9.99814 16.6479C11.8029 16.6479 12.0287 16.64 12.7375 16.6078C13.4449 16.5754 13.9283 16.4633 14.3511 16.299C14.788 16.1292 15.1582 15.9016 15.5274 15.5318C15.897 15.1624 16.1241 14.7916 16.2943 14.3545C16.4577 13.9318 16.5698 13.4486 16.603 12.7413C16.6349 12.0323 16.6432 11.8063 16.6432 10.0012C16.6432 8.19607 16.6349 7.96953 16.603 7.26055C16.5698 6.55295 16.4577 6.06995 16.2943 5.64733C16.1241 5.21017 15.897 4.83934 15.5274 4.46989C15.1578 4.10017 14.7881 3.87307 14.3507 3.70344C13.9271 3.53908 13.4439 3.42705 12.7365 3.39465C12.0277 3.36239 11.8021 3.35449 9.9969 3.35449H9.99897ZM9.40287 4.55229C9.57979 4.55201 9.7772 4.55229 9.99897 4.55229C11.7732 4.55229 11.9834 4.55866 12.6841 4.5905C13.3319 4.62014 13.6836 4.72842 13.9178 4.8194C14.2279 4.93987 14.449 5.08388 14.6814 5.31652C14.914 5.54915 15.058 5.77071 15.1787 6.08089C15.2696 6.31491 15.378 6.66663 15.4075 7.31469C15.4393 8.01536 15.4463 8.22584 15.4463 9.99968C15.4463 11.7735 15.4393 11.984 15.4075 12.6847C15.3779 13.3327 15.2696 13.6845 15.1787 13.9185C15.0582 14.2287 14.914 14.4495 14.6814 14.682C14.4488 14.9147 14.228 15.0587 13.9178 15.1791C13.6838 15.2705 13.3319 15.3785 12.6841 15.4082C11.9836 15.44 11.7732 15.4469 9.99897 15.4469C8.22465 15.4469 8.01436 15.44 7.31388 15.4082C6.666 15.3783 6.31437 15.27 6.08 15.179C5.76991 15.0585 5.54841 14.9145 5.31584 14.6819C5.08327 14.4492 4.93929 14.2282 4.81858 13.9179C4.72763 13.6839 4.61923 13.3322 4.58974 12.6841C4.5579 11.9835 4.55154 11.773 4.55154 9.99802C4.55154 8.22307 4.5579 8.0137 4.58974 7.31303C4.61937 6.66497 4.72763 6.31325 4.81858 6.07895C4.93902 5.76877 5.08327 5.54722 5.31584 5.31458C5.54841 5.08195 5.76991 4.93793 6.08 4.81718C6.31424 4.72579 6.666 4.61778 7.31388 4.58801C7.92687 4.56032 8.16443 4.55201 9.40287 4.55062V4.55229ZM13.546 5.65592C13.1057 5.65592 12.7486 6.01276 12.7486 6.45325C12.7486 6.89359 13.1057 7.25085 13.546 7.25085C13.9862 7.25085 14.3434 6.89359 14.3434 6.45325C14.3434 6.0129 13.9862 5.65564 13.546 5.65564V5.65592ZM9.99897 6.58784C8.11445 6.58784 6.58654 8.11617 6.58654 10.0012C6.58654 11.8862 8.11445 13.4139 9.99897 13.4139C11.8835 13.4139 13.4109 11.8862 13.4109 10.0012C13.4109 8.11617 11.8834 6.58784 9.99883 6.58784H9.99897ZM9.99897 7.78564C11.2222 7.78564 12.2139 8.77752 12.2139 10.0012C12.2139 11.2248 11.2222 12.2168 9.99897 12.2168C8.77562 12.2168 7.78401 11.2248 7.78401 10.0012C7.78401 8.77752 8.77562 7.78564 9.99897 7.78564Z" fill="white"/>
<defs>
<radialGradient id="paint0_radial_64_1832" cx="0" cy="0" r="1" gradientUnits="userSpaceOnUse" gradientTransform="translate(5.78127 20.3864) rotate(-90) scale(17.8393 16.592)">
<stop stop-color="#FFDD55"/>
<stop offset="0.1" stop-color="#FFDD55"/>
<stop offset="0.5" stop-color="#FF543E"/>
<stop offset="1" stop-color="#C837AB"/>
</radialGradient>
<radialGradient id="paint1_radial_64_1832" cx="0" cy="0" r="1" gradientUnits="userSpaceOnUse" gradientTransform="translate(-2.0151 2.29669) rotate(78.6806) scale(7.97425 32.8702)">
<stop stop-color="#3771C8"/>
<stop offset="0.128" stop-color="#3771C8"/>
<stop offset="1" stop-color="#6600FF" stop-opacity="0"/>
</radialGradient>
</defs>
</svg>
