<svg width="20" height="20" viewBox="0 0 20 20" fill="none" xmlns="http://www.w3.org/2000/svg">
<path d="M17.1572 6.64114C17.1682 6.79983 17.1682 6.95851 17.1682 7.11866C17.1682 11.9984 13.4534 17.6262 6.6607 17.6262V17.6232C4.65411 17.6262 2.68921 17.0514 1 15.9677C1.29177 16.0028 1.58501 16.0203 1.87898 16.021C3.54186 16.0225 5.15722 15.4645 6.46545 14.4371C4.88519 14.4071 3.49945 13.3768 3.01536 11.8726C3.56892 11.9794 4.13931 11.9574 4.68263 11.809C2.95978 11.4609 1.72029 9.94718 1.72029 8.18922V8.14242C2.23364 8.42835 2.80841 8.58703 3.39634 8.60458C1.77367 7.52012 1.27349 5.36144 2.25338 3.67368C4.12834 5.98081 6.8947 7.38337 9.86435 7.53182C9.56673 6.24919 9.97331 4.90513 10.9327 4.00348C12.4201 2.60531 14.7594 2.67697 16.1576 4.16363C16.9846 4.00056 17.7773 3.69708 18.5027 3.2671C18.2271 4.12195 17.6501 4.84809 16.8793 5.30952C17.6113 5.22323 18.3265 5.02725 19 4.72816C18.5042 5.47112 17.8797 6.11829 17.1572 6.64114Z" fill="#1D9BF0"/>
</svg>
