<svg width="20" height="20" viewBox="0 0 20 20" fill="none" xmlns="http://www.w3.org/2000/svg">
<path d="M10 19C14.9706 19 19 14.9706 19 10C19 5.02944 14.9706 1 10 1C5.02944 1 1 5.02944 1 10C1 14.9706 5.02944 19 10 19Z" fill="#1977F3"/>
<path d="M13.5028 12.6021L13.9015 9.99995H11.4056V8.31158C11.4056 7.60029 11.7537 6.90545 12.8725 6.90545H14.0078V4.69057C14.0078 4.69057 12.9776 4.51465 11.9929 4.51465C9.93749 4.51465 8.59337 5.76004 8.59337 8.01669V9.99995H6.30762V12.6021H8.59337V18.8911C9.05154 18.9633 9.52109 19 9.9995 19C10.4779 19 10.9475 18.962 11.4056 18.8911V12.6021H13.5028Z" fill="white"/>
</svg>
